<?xml version="1.0" standalone="no"?>
<!DOCTYPE svg PUBLIC "-//W3C//DTD SVG 20010904//EN"
 "http://www.w3.org/TR/2001/REC-SVG-20010904/DTD/svg10.dtd">
<svg version="1.0" xmlns="http://www.w3.org/2000/svg"
 width="76.000000pt" height="53.000000pt" viewBox="0 0 587.000000 425.000000"
 preserveAspectRatio="xMidYMid meet">

<g transform="translate(0.000000,425.000000) scale(0.100000,-0.100000)"
fill="#FFFFFF" stroke="none">
<path d="M4869 3849 c-259 -173 -369 -226 -511 -247 -53 -8 -53 -8 -50 -42 4
-54 37 -96 100 -127 55 -27 62 -28 216 -28 l158 0 -6 -65 c-3 -36 -9 -143 -12
-238 -4 -105 -11 -176 -18 -181 -16 -13 -262 -91 -287 -91 -12 0 -39 10 -60
22 -37 21 -40 21 -57 5 -27 -28 -24 -142 6 -184 30 -43 106 -78 232 -108 171
-41 177 -43 184 -68 3 -12 6 -57 6 -99 0 -65 -3 -78 -16 -78 -9 0 -18 9 -21
20 -3 11 -9 20 -14 20 -13 0 -11 -13 7 -38 8 -12 14 -34 12 -49 -3 -25 -8 -27
-158 -60 -299 -65 -456 -93 -557 -100 -119 -7 -121 -10 -74 -85 84 -133 320
-197 566 -154 44 8 186 41 315 74 402 104 512 112 726 57 144 -37 178 -32 212
35 37 73 31 92 -50 180 l-73 79 -305 5 c-168 3 -336 2 -375 -3 -38 -5 -74 -5
-79 0 -15 14 -19 146 -6 194 8 29 33 69 71 113 122 140 142 170 147 221 4 45
1 52 -32 89 -20 22 -66 59 -103 83 l-66 43 7 191 c9 228 11 246 28 256 7 5 69
44 138 87 l125 78 5 80 c3 43 12 89 18 102 11 20 10 25 -13 46 -15 14 -59 36
-99 49 l-73 25 -164 -109z"/>
<path d="M1045 3701 c-72 -44 -124 -121 -195 -285 -27 -61 -100 -221 -164
-356 -91 -195 -132 -270 -200 -365 -100 -142 -216 -287 -234 -293 -17 -5 -15
30 4 78 9 23 14 44 10 47 -10 10 -175 -165 -182 -194 -6 -23 -1 -32 35 -64 92
-82 178 -98 271 -52 64 32 185 150 291 283 109 137 169 190 214 190 56 0 97
-23 176 -97 41 -38 114 -93 162 -122 48 -29 136 -89 195 -133 151 -114 232
-151 342 -156 103 -5 167 9 304 70 121 53 166 91 166 140 0 41 -30 85 -69 100
-15 6 -103 10 -216 9 -270 -2 -325 16 -590 189 -183 120 -245 154 -330 181
-38 12 -71 24 -73 25 -2 1 33 72 77 157 115 218 135 278 135 402 1 93 -1 105
-31 166 -18 36 -41 73 -51 82 -17 15 -20 15 -47 -2z"/>
<path d="M3023 3673 c-9 -3 -13 -37 -13 -117 0 -62 -9 -196 -20 -297 -11 -101
-21 -204 -22 -228 -2 -27 -9 -47 -18 -52 -8 -4 -71 -39 -140 -77 -121 -68
-211 -112 -231 -112 -12 0 -109 197 -109 221 0 23 -10 29 -31 18 -33 -17 -49
-64 -49 -141 0 -136 49 -261 191 -494 l71 -115 -16 -46 c-34 -101 -13 -127
108 -131 44 -1 91 -5 102 -7 l22 -5 -2 -402 c-1 -467 16 -1327 24 -1196 3 54
11 92 19 100 11 11 13 -25 8 -227 -5 -211 -4 -238 9 -221 44 60 85 231 111
461 15 138 17 235 15 712 -3 505 3 692 24 779 4 16 16 23 46 28 93 15 266 118
327 195 39 49 70 118 71 154 0 44 -27 96 -72 137 l-41 38 141 139 c145 142
174 184 188 272 5 33 2 40 -29 68 -72 64 -172 63 -391 -2 -143 -42 -160 -44
-153 -12 44 203 49 237 45 318 -5 105 -33 169 -96 216 -42 32 -62 37 -89 26z
m297 -798 c0 -7 -23 -33 -51 -57 -28 -24 -69 -60 -91 -80 -22 -21 -44 -38 -49
-38 -12 0 -11 42 2 95 9 37 15 44 42 49 18 4 55 17 82 30 52 24 65 24 65 1z
m-394 -170 c21 -51 17 -105 -11 -162 -28 -56 -78 -100 -123 -109 -26 -5 -30
-3 -36 23 -4 15 -18 42 -30 58 -13 17 -30 44 -39 61 -16 30 -15 33 3 57 11 14
55 40 97 57 43 18 82 36 88 41 18 18 36 8 51 -26z m380 -226 c-3 -17 -15 -43
-26 -59 -21 -30 -180 -118 -180 -100 0 21 38 85 67 112 22 21 125 77 142 78 2
0 1 -14 -3 -31z"/>
</g>
</svg>
